<svg width="53" height="65" viewBox="0 0 53 65" fill="none" xmlns="http://www.w3.org/2000/svg">
<g clip-path="url(#clip0_402_3)">
<rect width="53" height="65" fill="white"/>
<path d="M35.642 6.63636H48.2727V40.4119C48.2727 44.3153 47.3438 47.7159 45.4858 50.6136C43.6278 53.4943 41.0369 55.7273 37.7131 57.3125C34.3892 58.8807 30.5284 59.6648 26.1307 59.6648C21.6818 59.6648 17.7955 58.8807 14.4716 57.3125C11.1477 55.7273 8.56534 53.4943 6.72443 50.6136C4.88352 47.7159 3.96307 44.3153 3.96307 40.4119V6.63636H16.6193V39.3125C16.6193 41.1193 17.0114 42.7301 17.7955 44.1449C18.5966 45.5597 19.7131 46.6676 21.1449 47.4688C22.5767 48.2699 24.2386 48.6705 26.1307 48.6705C28.0227 48.6705 29.6761 48.2699 31.0909 47.4688C32.5227 46.6676 33.6392 45.5597 34.4403 44.1449C35.2415 42.7301 35.642 41.1193 35.642 39.3125V6.63636Z" fill="#2F6EF5"/>
</g>
<defs>
<clipPath id="clip0_402_3">
<rect width="53" height="65" fill="white"/>
</clipPath>
</defs>
</svg>
